<?xml version="1.0" encoding="utf-8"?>
<!-- Generator: Adobe Illustrator 23.0.6, SVG Export Plug-In . SVG Version: 6.00 Build 0)  -->
<!DOCTYPE svg PUBLIC "-//W3C//DTD SVG 1.1//EN" "http://www.w3.org/Graphics/SVG/1.1/DTD/svg11.dtd" [
	<!ENTITY st0 "fill:#13181E;">
	<!ENTITY st1 "fill:#EE3424;">
	<!ENTITY st2 "fill:#AF1F23;">
]>
<svg version="1.1" xmlns="http://www.w3.org/2000/svg" xmlns:xlink="http://www.w3.org/1999/xlink" x="0px" y="0px" width="288.3px"
	 height="66.8px" viewBox="0 0 288.3 66.8" style="enable-background:new 0 0 288.3 66.8;" xml:space="preserve">
<g id="text">
	<polyline style="&st0;" points="145.3,30.1 153.7,17.7 167.3,17.7 155.2,35.6 167.7,54.3 154.1,54.3 145.3,41.1 145.3,54.3 
		134,54.3 134,1.8 145.3,1.8 145.3,30.1 	"/>
	<path style="&st0;" d="M144.4,29.3"/>
	<path style="&st0;" d="M144.4,29.3"/>
	<path style="&st0;" d="M286.7,29.1v25.2h-11.3v-25c0-2.5-2.1-4.6-4.6-4.6c-2.6,0-4.6,2.1-4.6,4.6v25h-11.3V1.8h11.3v17
		c2.2-1.6,4.8-2.6,7.7-2.6C281,16.3,286.7,22,286.7,29.1z"/>
	<path style="&st0;" d="M116.5,17.7v1.8c-3.1-2-6.7-3.1-10.6-3.1C95,16.3,86.2,25.1,86.2,36s8.8,19.6,19.6,19.6
		c3.9,0,7.6-1.2,10.6-3.1v1.9h11.3V17.7H116.5z M107.5,45.5c-5.5,0-10-4.5-10-10c0-5.5,4.5-10,10-10s10,4.5,10,10
		C117.5,41.1,113,45.5,107.5,45.5z"/>
	<path style="&st0;" d="M197.9,17.7v1.8c-3.1-2-6.7-3.1-10.6-3.1c-10.8,0-19.6,8.8-19.6,19.6s8.8,19.6,19.6,19.6
		c3.9,0,7.6-1.2,10.6-3.1v1.9h11.3V17.7H197.9z M188.9,45.5c-5.5,0-10-4.5-10-10c0-5.5,4.5-10,10-10s10,4.5,10,10
		C199,41.1,194.5,45.5,188.9,45.5z"/>
	<path style="&st0;" d="M225.7,42.4c0.1,0.8,0.3,1.4,0.6,1.9c0.4,0.5,0.8,1,1.4,1.3c0.6,0.4,1.3,0.6,2.1,0.8
		c0.8,0.2,1.7,0.3,2.6,0.3c2,0,3.6-0.3,4.6-0.9c0.8-0.5,1.2-1.1,1.2-1.8c0-0.3-0.1-0.6-0.2-0.8c-0.1-0.1-0.3-0.4-0.9-0.7
		c-0.6-0.3-1.4-0.6-2.3-0.9c-1-0.3-2.4-0.6-4-0.9c-2.1-0.4-4.1-1-5.9-1.6c-1.8-0.7-3.4-1.5-4.7-2.4c-1.4-1-2.4-2.1-3.2-3.5
		c-0.8-1.3-1.2-2.9-1.2-4.6c0-1.7,0.4-3.3,1.2-4.8c0.8-1.5,1.9-2.8,3.4-3.9c1.4-1.1,3.2-2,5.2-2.6c2-0.6,4.3-0.9,6.8-0.9
		c2.6,0,5,0.3,7,0.9c2.1,0.6,3.9,1.5,5.4,2.6c1.5,1.1,2.7,2.5,3.5,4.1c0.8,1.6,1.2,3.3,1.2,5.1h-11.6c0-1-0.4-1.8-1.3-2.6
		c-0.9-0.7-2.4-1.1-4.3-1.1c-1.9,0-3.3,0.3-4.1,0.9c-0.8,0.5-1.1,1.1-1.1,1.9c0,0.3,0.1,0.7,0.2,0.9c0.1,0.2,0.4,0.5,0.7,0.7
		c0.5,0.3,1.1,0.6,2,0.9c0.9,0.3,2.1,0.5,3.5,0.7c2.2,0.4,4.3,0.8,6.2,1.4c2,0.6,3.7,1.3,5.1,2.3c1.5,1,2.7,2.2,3.5,3.6
		c0.9,1.4,1.3,3.1,1.3,5.1c0,1.8-0.4,3.5-1.3,5c-0.8,1.5-2.1,2.8-3.6,3.8c-1.5,1-3.3,1.9-5.4,2.4c-2.1,0.6-4.4,0.9-7,0.9
		c-2.8,0-5.3-0.4-7.5-1.1c-2.2-0.7-4-1.7-5.5-3c-1.5-1.2-2.7-2.7-3.5-4.3c-0.8-1.6-1.2-3.2-1.2-4.9L225.7,42.4z"/>
</g>
<g id="icon">
	<polygon style="&st1;" points="62,64.9 74.1,43.9 49.8,1.9 25.6,1.9 	"/>
	<polygon style="&st2;" points="49.8,43.9 62,64.9 37.7,64.9 25.6,43.9 	"/>
	<polygon style="&st1;" points="13.4,22.9 37.7,22.9 13.4,64.9 1.3,43.9 	"/>
</g>
</svg>
