<svg xmlns="http://www.w3.org/2000/svg" viewBox="0 0 629.75 132.6"><defs><style>.cls-1{fill:#231f20;}</style></defs><title>Asset 4</title><g id="Layer_2" data-name="Layer 2"><g id="Logo"><path class="cls-1" d="M75.87,29.36l12.71-22a3.77,3.77,0,0,1,4.79-1.56,66.26,66.26,0,0,1,27.1,98.71,2.51,2.51,0,0,1-4.23-.18L75.87,34.38A5,5,0,0,1,75.87,29.36Zm-25,47.12H81.76a1.26,1.26,0,0,0,1.09-1.88L67.38,47.82a1.25,1.25,0,0,0-2.17,0L49.75,74.6A1.26,1.26,0,0,0,50.84,76.48ZM33.87,74,74.25,4a2.52,2.52,0,0,0-2-3.76c-2-.18-4-.27-6-.27A66.31,66.31,0,0,0,.35,73.11,3.76,3.76,0,0,0,4.1,76.48H29.52A5,5,0,0,0,33.87,74ZM89.15,90.54H8.4a2.52,2.52,0,0,0-2.27,3.59A66.27,66.27,0,0,0,105.18,120a3.77,3.77,0,0,0,1-4.93l-12.71-22A5,5,0,0,0,89.15,90.54Z"/><path class="cls-1" d="M257.83,16.5h19a.74.74,0,0,1,.75.75V61.92L305.65,17a1,1,0,0,1,.85-.47h23.14a.5.5,0,0,1,.41.78L298.78,62.64l35.39,53.45H308.38a1,1,0,0,1-.86-.5L277.57,64.07v51.27a.75.75,0,0,1-.75.75h-19a.76.76,0,0,1-.75-.75V17.25A.75.75,0,0,1,257.83,16.5Z"/><path class="cls-1" d="M585.66,17.24v98.1a.75.75,0,0,1-.75.75h-19a.75.75,0,0,1-.75-.75V74.58H531.8v40.76a.76.76,0,0,1-.75.75H512.49a.75.75,0,0,1-.75-.75V17.24a.74.74,0,0,1,.75-.75h18.56a.75.75,0,0,1,.75.75V58h33.37V17.24a.74.74,0,0,1,.75-.75h19A.74.74,0,0,1,585.66,17.24Z"/><path class="cls-1" d="M625.74,16.49l-3.4,9.13-3.44-9.13h-4v13h2.81V20l.16,0,3.52,9.42h1.83L626.78,20h.16v9.49h2.81v-13ZM601.54,19h3.88V29.47h2.8V19h3.88V16.49H601.54Z"/><path class="cls-1" d="M242.71,115.44,211.78,17a.75.75,0,0,0-.71-.52H190.74a1,1,0,0,0-.92.66l-32.14,98.28a.5.5,0,0,0,.47.66h19.43a1,1,0,0,0,1-.72c.67-2.31,2.92-10,5.57-19h31.65c2.62,9,4.83,16.66,5.5,19a1,1,0,0,0,1,.72h20A.5.5,0,0,0,242.71,115.44ZM188.93,80c3.36-11.49,6.29-21.51,6.54-22.47,1.86-7.43,4.72-19.15,4.72-19.15s3,13,4,17.58c.29,1.29,3.35,12,6.82,24Z"/><path class="cls-1" d="M416.76,115.44,385.84,17a.75.75,0,0,0-.72-.52H364.79a1,1,0,0,0-.91.66l-32.15,98.28a.5.5,0,0,0,.47.66h19.43a1,1,0,0,0,1-.72c.68-2.31,2.93-10,5.57-19h31.65c2.62,9,4.84,16.66,5.51,19a1,1,0,0,0,1,.72h20A.5.5,0,0,0,416.76,115.44ZM363,80c3.37-11.49,6.29-21.51,6.54-22.47,1.86-7.43,4.72-19.15,4.72-19.15s3,13,4,17.58c.29,1.29,3.35,12,6.83,24Z"/><path class="cls-1" d="M493.57,85.27c0,20.35-16.46,33.77-41.43,33.77a72,72,0,0,1-28.29-6.13.75.75,0,0,1-.31-1.12l9.36-13.55a.5.5,0,0,1,.6-.17A48.51,48.51,0,0,0,453,102.3c11.55,0,17.61-4.77,17.61-13.72,0-6.49-4.19-10.68-13.14-13l-11.11-3c-10-2.74-16.16-6.63-19.77-12.7a28.9,28.9,0,0,1-4.19-15.3c0-18.33,14.72-31,35.94-31,12,0,24.12,3.59,32.89,9.68a.77.77,0,0,1,.19,1l-8.86,13.42a.51.51,0,0,1-.68.15c-8.88-5.3-15.57-7.4-23-7.4-8.23,0-14,4.76-14,11.55,0,5.19,2.74,7.79,11.11,10.1l12.12,3.32C484.62,59.86,493.57,70.4,493.57,85.27Z"/></g></g></svg>