<?xml version="1.0" encoding="UTF-8" standalone="no"?>
<!DOCTYPE svg PUBLIC "-//W3C//DTD SVG 1.1//EN"
 "http://www.w3.org/Graphics/SVG/1.1/DTD/svg11.dtd">
<!-- Generated by graphviz version 2.40.1 (20161225.0304)
 -->
<!-- Title: marketplace Pages: 1 -->
<svg width="441pt" height="490pt"
 viewBox="0.00 0.00 441.33 490.09" xmlns="http://www.w3.org/2000/svg" xmlns:xlink="http://www.w3.org/1999/xlink">
<g id="graph0" class="graph" transform="scale(1 1) rotate(0) translate(4 486.0911)">
<title>marketplace</title>
<polygon fill="#ffffff" stroke="transparent" points="-4,4 -4,-486.0911 437.3281,-486.0911 437.3281,4 -4,4"/>
<!-- master -->
<g id="node1" class="node">
<title>master</title>
<ellipse fill="none" stroke="#000000" cx="255.3105" cy="-292.4097" rx="34.8285" ry="34.8285"/>
<text text-anchor="middle" x="255.3105" y="-288.2097" font-family="Times,serif" font-size="14.00" fill="#000000">Master</text>
</g>
<!-- provider -->
<g id="node2" class="node">
<title>provider</title>
<ellipse fill="none" stroke="#000000" cx="180.3105" cy="-167.1835" rx="40.6248" ry="40.6248"/>
<text text-anchor="middle" x="180.3105" y="-162.9835" font-family="Times,serif" font-size="14.00" fill="#000000">Provider</text>
</g>
<!-- master&#45;&gt;provider -->
<g id="edge2" class="edge">
<title>master&#45;&gt;provider</title>
<path fill="none" stroke="#000000" d="M231.5277,-266.7337C224.5846,-258.4855 217.336,-249.0634 211.624,-239.7458 206.8318,-231.9286 202.4077,-223.2479 198.4861,-214.6872"/>
<polygon fill="#000000" stroke="#000000" points="201.6694,-213.2314 194.4343,-205.4916 195.2637,-216.054 201.6694,-213.2314"/>
<text text-anchor="middle" x="255.6538" y="-228.5458" font-family="Times,serif" font-size="14.00" fill="#000000">deploy contract</text>
</g>
<!-- client -->
<g id="node3" class="node">
<title>client</title>
<ellipse fill="none" stroke="#000000" cx="330.3105" cy="-167.1835" rx="31.948" ry="31.948"/>
<text text-anchor="middle" x="330.3105" y="-162.9835" font-family="Times,serif" font-size="14.00" fill="#000000">Client</text>
</g>
<!-- master&#45;&gt;client -->
<g id="edge3" class="edge">
<title>master&#45;&gt;client</title>
<path fill="none" stroke="#000000" d="M278.653,-266.6599C285.4843,-258.4088 292.6342,-249.0035 298.3105,-239.7458 304.6562,-229.3966 310.4267,-217.5686 315.2655,-206.5081"/>
<polygon fill="#000000" stroke="#000000" points="318.5971,-207.6159 319.269,-197.0424 312.15,-204.8891 318.5971,-207.6159"/>
<text text-anchor="middle" x="349.6538" y="-228.5458" font-family="Times,serif" font-size="14.00" fill="#000000">deploy contract</text>
</g>
<!-- provider&#45;&gt;client -->
<g id="edge4" class="edge">
<title>provider&#45;&gt;client</title>
<path fill="none" stroke="#000000" d="M219.231,-154.4372C236.8004,-150.203 257.8335,-147.2361 276.8336,-150.1835 281.3417,-150.8828 285.9899,-151.8951 290.5761,-153.0825"/>
<polygon fill="#000000" stroke="#000000" points="289.8614,-156.5184 300.4386,-155.908 291.7893,-149.7891 289.8614,-156.5184"/>
<text text-anchor="middle" x="259.7301" y="-152.9835" font-family="Times,serif" font-size="14.00" fill="#000000">match</text>
</g>
<!-- client&#45;&gt;provider -->
<g id="edge5" class="edge">
<title>client&#45;&gt;provider</title>
<path fill="none" stroke="#000000" d="M298.2411,-167.1835C278.7299,-167.1835 253.3744,-167.1835 231.1761,-167.1835"/>
<polygon fill="#000000" stroke="#000000" points="230.9027,-163.6836 220.9027,-167.1835 230.9027,-170.6836 230.9027,-163.6836"/>
<text text-anchor="middle" x="259.7301" y="-172.9835" font-family="Times,serif" font-size="14.00" fill="#000000">send funds</text>
</g>
<!-- user -->
<g id="node4" class="node">
<title>user</title>
<polygon fill="none" stroke="#000000" points="351.7474,-59.7474 308.8737,-59.7474 308.8737,-16.8737 351.7474,-16.8737 351.7474,-59.7474"/>
<text text-anchor="middle" x="330.3105" y="-34.1105" font-family="Times,serif" font-size="14.00" fill="#000000">User</text>
</g>
<!-- user&#45;&gt;client -->
<g id="edge6" class="edge">
<title>user&#45;&gt;client</title>
<path fill="none" stroke="#000000" d="M330.3105,-59.7224C330.3105,-77.5197 330.3105,-103.3802 330.3105,-125.2724"/>
<polygon fill="#000000" stroke="#000000" points="326.8106,-125.3272 330.3105,-135.3272 333.8106,-125.3273 326.8106,-125.3272"/>
<text text-anchor="middle" x="381.8193" y="-97.4211" font-family="Times,serif" font-size="14.00" fill="#000000">send funds, cancel</text>
</g>
<!-- datacenter -->
<g id="node5" class="node">
<title>datacenter</title>
<polygon fill="none" stroke="#000000" points="76.4326,-76.4326 .1885,-76.4326 .1885,-.1885 76.4326,-.1885 76.4326,-76.4326"/>
<text text-anchor="middle" x="38.3105" y="-34.1105" font-family="Times,serif" font-size="14.00" fill="#000000">Datacenter</text>
</g>
<!-- datacenter&#45;&gt;provider -->
<g id="edge7" class="edge">
<title>datacenter&#45;&gt;provider</title>
<path fill="none" stroke="#000000" d="M35.4767,-76.7015C36.4101,-87.8806 39.2825,-99.5207 45.9756,-108.6211 65.7972,-135.5718 100.6992,-150.287 129.9594,-158.2256"/>
<polygon fill="#000000" stroke="#000000" points="129.4883,-161.716 140.0399,-160.7599 131.1951,-154.9272 129.4883,-161.716"/>
<text text-anchor="middle" x="116.478" y="-97.4211" font-family="Times,serif" font-size="14.00" fill="#000000">withdrawal funds, cancel</text>
</g>
<!-- overclock&#45;labs -->
<g id="node6" class="node">
<title>overclock&#45;labs</title>
<polygon fill="none" stroke="#000000" points="307.8281,-482.0999 202.793,-482.0999 202.793,-377.0647 307.8281,-377.0647 307.8281,-482.0999"/>
<text text-anchor="middle" x="255.3105" y="-425.3823" font-family="Times,serif" font-size="14.00" fill="#000000">Overclock Labs</text>
</g>
<!-- overclock&#45;labs&#45;&gt;master -->
<g id="edge1" class="edge">
<title>overclock&#45;labs&#45;&gt;master</title>
<path fill="none" stroke="#000000" d="M255.3105,-376.9401C255.3105,-363.9543 255.3105,-350.1613 255.3105,-337.5664"/>
<polygon fill="#000000" stroke="#000000" points="258.8106,-337.3124 255.3105,-327.3124 251.8106,-337.3125 258.8106,-337.3124"/>
<text text-anchor="middle" x="298.6538" y="-347.8735" font-family="Times,serif" font-size="14.00" fill="#000000">deploy contract</text>
</g>
<!-- oracle -->
<g id="node7" class="node">
<title>oracle</title>
<polygon fill="none" stroke="#000000" points="228.1151,-65.1151 174.506,-65.1151 174.506,-11.506 228.1151,-11.506 228.1151,-65.1151"/>
<text text-anchor="middle" x="201.3105" y="-34.1105" font-family="Times,serif" font-size="14.00" fill="#000000">Oracle</text>
</g>
<!-- oracle&#45;&gt;provider -->
<g id="edge8" class="edge">
<title>oracle&#45;&gt;provider</title>
<path fill="none" stroke="#000000" d="M196.9115,-65.3069C194.4728,-80.2724 191.3619,-99.3634 188.4937,-116.9648"/>
<polygon fill="#000000" stroke="#000000" points="184.9939,-116.6809 186.84,-127.1137 191.9028,-117.8068 184.9939,-116.6809"/>
<text text-anchor="middle" x="235.0659" y="-97.4211" font-family="Times,serif" font-size="14.00" fill="#000000">make bad actor</text>
</g>
</g>
</svg>
