<?xml version="1.0" encoding="UTF-8" standalone="no"?>
<!DOCTYPE svg PUBLIC "-//W3C//DTD SVG 1.1//EN"
 "http://www.w3.org/Graphics/SVG/1.1/DTD/svg11.dtd">
<!-- Generated by graphviz version 2.40.1 (20161225.0304)
 -->
<!-- Title: marketplace Pages: 1 -->
<svg width="244pt" height="425pt"
 viewBox="0.00 0.00 244.26 425.38" xmlns="http://www.w3.org/2000/svg" xmlns:xlink="http://www.w3.org/1999/xlink">
<g id="graph0" class="graph" transform="scale(1 1) rotate(0) translate(4 421.3772)">
<title>marketplace</title>
<polygon fill="#ffffff" stroke="transparent" points="-4,4 -4,-421.3772 240.2606,-421.3772 240.2606,4 -4,4"/>
<!-- master -->
<g id="node1" class="node">
<title>master</title>
<ellipse fill="none" stroke="#000000" cx="131.5624" cy="-269.0923" rx="34.8285" ry="34.8285"/>
<text text-anchor="middle" x="131.5624" y="-264.8923" font-family="Times,serif" font-size="14.00" fill="#000000">Master</text>
</g>
<!-- provider -->
<g id="node2" class="node">
<title>provider</title>
<ellipse fill="none" stroke="#000000" cx="40.5624" cy="-143.8661" rx="40.6248" ry="40.6248"/>
<text text-anchor="middle" x="40.5624" y="-139.6661" font-family="Times,serif" font-size="14.00" fill="#000000">Provider</text>
</g>
<!-- master&#45;&gt;provider -->
<g id="edge3" class="edge">
<title>master&#45;&gt;provider</title>
<path fill="none" stroke="#000000" d="M111.1402,-240.9891C99.1434,-224.4802 83.7641,-203.3164 70.4257,-184.9614"/>
<polygon fill="#000000" stroke="#000000" points="73.1704,-182.7846 64.4604,-176.7524 67.5077,-186.8996 73.1704,-182.7846"/>
<text text-anchor="middle" x="110.6141" y="-205.2284" font-family="Times,serif" font-size="14.00" fill="#000000">deploy</text>
</g>
<!-- client -->
<g id="node3" class="node">
<title>client</title>
<ellipse fill="none" stroke="#000000" cx="173.5624" cy="-143.8661" rx="31.948" ry="31.948"/>
<text text-anchor="middle" x="173.5624" y="-139.6661" font-family="Times,serif" font-size="14.00" fill="#000000">Client</text>
</g>
<!-- master&#45;&gt;client -->
<g id="edge4" class="edge">
<title>master&#45;&gt;client</title>
<path fill="none" stroke="#000000" d="M140.4318,-235.3198C143.4026,-224.7226 146.8761,-213.0267 150.4589,-202.4284 152.6459,-195.9588 155.1417,-189.1585 157.6653,-182.5744"/>
<polygon fill="#000000" stroke="#000000" points="160.9697,-183.7344 161.3497,-173.1464 154.4499,-181.1864 160.9697,-183.7344"/>
<text text-anchor="middle" x="169.6141" y="-205.2284" font-family="Times,serif" font-size="14.00" fill="#000000">deploy</text>
</g>
<!-- provider&#45;&gt;client -->
<g id="edge5" class="edge">
<title>provider&#45;&gt;client</title>
<path fill="none" stroke="#000000" d="M79.0263,-130.1645C84.1326,-128.8049 89.3429,-127.6425 94.3784,-126.8661 109.404,-124.5493 113.6298,-124.134 128.5855,-126.8661 130.6384,-127.2411 132.7193,-127.705 134.8031,-128.2369"/>
<polygon fill="#000000" stroke="#000000" points="133.8977,-131.6193 144.4818,-131.1425 135.9104,-124.9149 133.8977,-131.6193"/>
<text text-anchor="middle" x="111.4819" y="-129.6661" font-family="Times,serif" font-size="14.00" fill="#000000">match</text>
</g>
<!-- client&#45;&gt;provider -->
<g id="edge6" class="edge">
<title>client&#45;&gt;provider</title>
<path fill="none" stroke="#000000" d="M141.6157,-143.8661C126.5958,-143.8661 108.3197,-143.8661 91.4612,-143.8661"/>
<polygon fill="#000000" stroke="#000000" points="91.1895,-140.3662 81.1894,-143.8661 91.1894,-147.3662 91.1895,-140.3662"/>
<text text-anchor="middle" x="111.4819" y="-149.6661" font-family="Times,serif" font-size="14.00" fill="#000000">transfer</text>
</g>
<!-- user -->
<g id="node4" class="node">
<title>user</title>
<polygon fill="none" stroke="#000000" points="199.9992,-400.5035 157.1256,-400.5035 157.1256,-357.6299 199.9992,-357.6299 199.9992,-400.5035"/>
<text text-anchor="middle" x="178.5624" y="-374.8667" font-family="Times,serif" font-size="14.00" fill="#000000">User</text>
</g>
<!-- user&#45;&gt;master -->
<g id="edge1" class="edge">
<title>user&#45;&gt;master</title>
<path fill="none" stroke="#000000" d="M169.3887,-357.6015C163.6718,-344.2245 156.1257,-326.5675 149.2782,-310.5452"/>
<polygon fill="#000000" stroke="#000000" points="152.4947,-309.1651 145.3463,-301.3452 146.0579,-311.9161 152.4947,-309.1651"/>
</g>
<!-- user&#45;&gt;client -->
<g id="edge7" class="edge">
<title>user&#45;&gt;client</title>
<path fill="none" stroke="#000000" d="M182.2526,-357.7729C187.4609,-324.4961 195.5911,-258.1966 188.5624,-202.4284 187.8141,-196.4915 186.6551,-190.2941 185.3054,-184.2469"/>
<polygon fill="#000000" stroke="#000000" points="188.6482,-183.1795 182.8929,-174.2842 181.8448,-184.827 188.6482,-183.1795"/>
<text text-anchor="middle" x="213.4115" y="-271.8923" font-family="Times,serif" font-size="14.00" fill="#000000">transfer,</text>
<text text-anchor="middle" x="213.4115" y="-257.8923" font-family="Times,serif" font-size="14.00" fill="#000000">cancel</text>
</g>
<!-- datacenter -->
<g id="node5" class="node">
<title>datacenter</title>
<polygon fill="none" stroke="#000000" points="103.6844,-417.1887 27.4403,-417.1887 27.4403,-340.9447 103.6844,-340.9447 103.6844,-417.1887"/>
<text text-anchor="middle" x="65.5624" y="-374.8667" font-family="Times,serif" font-size="14.00" fill="#000000">Datacenter</text>
</g>
<!-- datacenter&#45;&gt;master -->
<g id="edge2" class="edge">
<title>datacenter&#45;&gt;master</title>
<path fill="none" stroke="#000000" d="M88.4607,-340.9116C94.918,-330.152 101.9464,-318.4408 108.418,-307.6573"/>
<polygon fill="#000000" stroke="#000000" points="111.5536,-309.2341 113.6984,-298.8586 105.5515,-305.632 111.5536,-309.2341"/>
</g>
<!-- datacenter&#45;&gt;provider -->
<g id="edge8" class="edge">
<title>datacenter&#45;&gt;provider</title>
<path fill="none" stroke="#000000" d="M37.5554,-340.5992C30.8177,-329.2796 24.5652,-316.4998 21.0829,-303.7561 11.106,-267.2451 17.1243,-224.6461 25.013,-192.6032"/>
<polygon fill="#000000" stroke="#000000" points="28.487,-193.1511 27.622,-182.5916 21.7132,-191.3858 28.487,-193.1511"/>
<text text-anchor="middle" x="54.8021" y="-271.8923" font-family="Times,serif" font-size="14.00" fill="#000000">withdrawal,</text>
<text text-anchor="middle" x="54.8021" y="-257.8923" font-family="Times,serif" font-size="14.00" fill="#000000">cancel</text>
</g>
<!-- oracle -->
<g id="node6" class="node">
<title>oracle</title>
<polygon fill="none" stroke="#000000" points="67.367,-53.4564 13.7578,-53.4564 13.7578,.1527 67.367,.1527 67.367,-53.4564"/>
<text text-anchor="middle" x="40.5624" y="-22.4519" font-family="Times,serif" font-size="14.00" fill="#000000">Oracle</text>
</g>
<!-- oracle&#45;&gt;provider -->
<g id="edge9" class="edge">
<title>oracle&#45;&gt;provider</title>
<path fill="none" stroke="#000000" d="M40.5624,-53.6397C40.5624,-65.3453 40.5624,-79.4529 40.5624,-92.999"/>
<polygon fill="#000000" stroke="#000000" points="37.0625,-93.1992 40.5624,-103.1992 44.0625,-93.1992 37.0625,-93.1992"/>
<text text-anchor="middle" x="83.3177" y="-74.1037" font-family="Times,serif" font-size="14.00" fill="#000000">make bad actor</text>
</g>
</g>
</svg>
