<?xml version="1.0" encoding="UTF-8" standalone="no"?>
<!DOCTYPE svg PUBLIC "-//W3C//DTD SVG 1.1//EN"
 "http://www.w3.org/Graphics/SVG/1.1/DTD/svg11.dtd">
<!-- Generated by graphviz version 2.40.1 (20161225.0304)
 -->
<!-- Title: marketplace Pages: 1 -->
<svg width="250pt" height="425pt"
 viewBox="0.00 0.00 250.26 425.38" xmlns="http://www.w3.org/2000/svg" xmlns:xlink="http://www.w3.org/1999/xlink">
<g id="graph0" class="graph" transform="scale(1 1) rotate(0) translate(4 421.3772)">
<title>marketplace</title>
<polygon fill="#ffffff" stroke="transparent" points="-4,4 -4,-421.3772 246.2606,-421.3772 246.2606,4 -4,4"/>
<!-- master -->
<g id="node1" class="node">
<title>master</title>
<ellipse fill="none" stroke="#000000" cx="139.5624" cy="-269.0923" rx="34.8285" ry="34.8285"/>
<text text-anchor="middle" x="139.5624" y="-264.8923" font-family="Times,serif" font-size="14.00" fill="#000000">Master</text>
</g>
<!-- provider -->
<g id="node2" class="node">
<title>provider</title>
<ellipse fill="none" stroke="#000000" cx="40.5624" cy="-143.8661" rx="40.6248" ry="40.6248"/>
<text text-anchor="middle" x="40.5624" y="-139.6661" font-family="Times,serif" font-size="14.00" fill="#000000">Provider</text>
</g>
<!-- master&#45;&gt;provider -->
<g id="edge3" class="edge">
<title>master&#45;&gt;provider</title>
<path fill="none" stroke="#000000" d="M117.8364,-241.6109C104.3894,-224.6016 86.8993,-202.4782 71.9603,-183.5817"/>
<polygon fill="#000000" stroke="#000000" points="74.6807,-181.3791 65.7333,-175.7051 69.1894,-185.7203 74.6807,-181.3791"/>
<text text-anchor="middle" x="115.6141" y="-205.2284" font-family="Times,serif" font-size="14.00" fill="#000000">deploy</text>
</g>
<!-- client -->
<g id="node3" class="node">
<title>client</title>
<ellipse fill="none" stroke="#000000" cx="190.5624" cy="-143.8661" rx="31.948" ry="31.948"/>
<text text-anchor="middle" x="190.5624" y="-139.6661" font-family="Times,serif" font-size="14.00" fill="#000000">Client</text>
</g>
<!-- master&#45;&gt;client -->
<g id="edge4" class="edge">
<title>master&#45;&gt;client</title>
<path fill="none" stroke="#000000" d="M147.6309,-235.0207C150.564,-224.4094 154.2176,-212.7808 158.4589,-202.4284 161.4877,-195.0355 165.2119,-187.3795 169.0377,-180.1378"/>
<polygon fill="#000000" stroke="#000000" points="172.1766,-181.6923 173.8934,-171.2374 166.0316,-178.3398 172.1766,-181.6923"/>
<text text-anchor="middle" x="177.6141" y="-205.2284" font-family="Times,serif" font-size="14.00" fill="#000000">deploy</text>
</g>
<!-- provider&#45;&gt;client -->
<g id="edge5" class="edge">
<title>provider&#45;&gt;client</title>
<path fill="none" stroke="#000000" d="M79.4829,-131.1198C97.0522,-126.8856 118.0853,-123.9187 137.0855,-126.8661 141.5935,-127.5654 146.2417,-128.5777 150.8279,-129.7651"/>
<polygon fill="#000000" stroke="#000000" points="150.1132,-133.201 160.6904,-132.5906 152.0411,-126.4718 150.1132,-133.201"/>
<text text-anchor="middle" x="119.9819" y="-129.6661" font-family="Times,serif" font-size="14.00" fill="#000000">match</text>
</g>
<!-- client&#45;&gt;provider -->
<g id="edge6" class="edge">
<title>client&#45;&gt;provider</title>
<path fill="none" stroke="#000000" d="M158.4929,-143.8661C138.9817,-143.8661 113.6262,-143.8661 91.4279,-143.8661"/>
<polygon fill="#000000" stroke="#000000" points="91.1546,-140.3662 81.1545,-143.8661 91.1545,-147.3662 91.1546,-140.3662"/>
<text text-anchor="middle" x="119.9819" y="-149.6661" font-family="Times,serif" font-size="14.00" fill="#000000">send funds</text>
</g>
<!-- user -->
<g id="node4" class="node">
<title>user</title>
<polygon fill="none" stroke="#000000" points="207.9992,-400.5035 165.1256,-400.5035 165.1256,-357.6299 207.9992,-357.6299 207.9992,-400.5035"/>
<text text-anchor="middle" x="186.5624" y="-374.8667" font-family="Times,serif" font-size="14.00" fill="#000000">User</text>
</g>
<!-- user&#45;&gt;master -->
<g id="edge1" class="edge">
<title>user&#45;&gt;master</title>
<path fill="none" stroke="#000000" d="M177.3887,-357.6015C171.6718,-344.2245 164.1257,-326.5675 157.2782,-310.5452"/>
<polygon fill="#000000" stroke="#000000" points="160.4947,-309.1651 153.3463,-301.3452 154.0579,-311.9161 160.4947,-309.1651"/>
</g>
<!-- user&#45;&gt;client -->
<g id="edge7" class="edge">
<title>user&#45;&gt;client</title>
<path fill="none" stroke="#000000" d="M189.2693,-357.5901C193.1227,-324.3446 199.4227,-258.4111 196.5624,-202.4284 196.2821,-196.9422 195.855,-191.1781 195.3551,-185.4947"/>
<polygon fill="#000000" stroke="#000000" points="198.8286,-185.0505 194.3926,-175.4291 191.8604,-185.7169 198.8286,-185.0505"/>
<text text-anchor="middle" x="219.4115" y="-271.8923" font-family="Times,serif" font-size="14.00" fill="#000000">transfer,</text>
<text text-anchor="middle" x="219.4115" y="-257.8923" font-family="Times,serif" font-size="14.00" fill="#000000">cancel</text>
</g>
<!-- datacenter -->
<g id="node5" class="node">
<title>datacenter</title>
<polygon fill="none" stroke="#000000" points="111.6844,-417.1887 35.4403,-417.1887 35.4403,-340.9447 111.6844,-340.9447 111.6844,-417.1887"/>
<text text-anchor="middle" x="73.5624" y="-374.8667" font-family="Times,serif" font-size="14.00" fill="#000000">Datacenter</text>
</g>
<!-- datacenter&#45;&gt;master -->
<g id="edge2" class="edge">
<title>datacenter&#45;&gt;master</title>
<path fill="none" stroke="#000000" d="M96.4607,-340.9116C102.918,-330.152 109.9464,-318.4408 116.418,-307.6573"/>
<polygon fill="#000000" stroke="#000000" points="119.5536,-309.2341 121.6984,-298.8586 113.5515,-305.632 119.5536,-309.2341"/>
</g>
<!-- datacenter&#45;&gt;provider -->
<g id="edge8" class="edge">
<title>datacenter&#45;&gt;provider</title>
<path fill="none" stroke="#000000" d="M45.5554,-340.5992C38.8177,-329.2796 32.5652,-316.4998 29.0829,-303.7561 19.2199,-267.662 22.8832,-225.3786 28.5855,-193.3628"/>
<polygon fill="#000000" stroke="#000000" points="32.0597,-193.8282 30.4939,-183.3497 25.1835,-192.5176 32.0597,-193.8282"/>
<text text-anchor="middle" x="62.8021" y="-271.8923" font-family="Times,serif" font-size="14.00" fill="#000000">withdrawal,</text>
<text text-anchor="middle" x="62.8021" y="-257.8923" font-family="Times,serif" font-size="14.00" fill="#000000">cancel</text>
</g>
<!-- oracle -->
<g id="node6" class="node">
<title>oracle</title>
<polygon fill="none" stroke="#000000" points="67.367,-53.4564 13.7578,-53.4564 13.7578,.1527 67.367,.1527 67.367,-53.4564"/>
<text text-anchor="middle" x="40.5624" y="-22.4519" font-family="Times,serif" font-size="14.00" fill="#000000">Oracle</text>
</g>
<!-- oracle&#45;&gt;provider -->
<g id="edge9" class="edge">
<title>oracle&#45;&gt;provider</title>
<path fill="none" stroke="#000000" d="M40.5624,-53.6397C40.5624,-65.3453 40.5624,-79.4529 40.5624,-92.999"/>
<polygon fill="#000000" stroke="#000000" points="37.0625,-93.1992 40.5624,-103.1992 44.0625,-93.1992 37.0625,-93.1992"/>
<text text-anchor="middle" x="83.3177" y="-74.1037" font-family="Times,serif" font-size="14.00" fill="#000000">make bad actor</text>
</g>
</g>
</svg>
