<?xml version="1.0" encoding="UTF-8" standalone="no"?>
<!DOCTYPE svg PUBLIC "-//W3C//DTD SVG 1.1//EN"
 "http://www.w3.org/Graphics/SVG/1.1/DTD/svg11.dtd">
<!-- Generated by graphviz version 2.40.1 (20161225.0304)
 -->
<!-- Title: marketplace Pages: 1 -->
<svg width="329pt" height="323pt"
 viewBox="0.00 0.00 329.45 322.87" xmlns="http://www.w3.org/2000/svg" xmlns:xlink="http://www.w3.org/1999/xlink">
<g id="graph0" class="graph" transform="scale(1 1) rotate(0) translate(4 318.87)">
<title>marketplace</title>
<polygon fill="#ffffff" stroke="transparent" points="-4,4 -4,-318.87 325.4548,-318.87 325.4548,4 -4,4"/>
<!-- user -->
<g id="node1" class="node">
<title>user</title>
<ellipse fill="none" stroke="#000000" cx="24.8402" cy="-157.435" rx="24.6814" ry="24.6814"/>
<text text-anchor="middle" x="24.8402" y="-153.235" font-family="Times,serif" font-size="14.00" fill="#000000">user</text>
</g>
<!-- orderbook -->
<g id="node2" class="node">
<title>orderbook</title>
<ellipse fill="none" stroke="#000000" cx="139.1326" cy="-157.435" rx="46.4046" ry="46.4046"/>
<text text-anchor="middle" x="139.1326" y="-153.235" font-family="Times,serif" font-size="14.00" fill="#000000">orderbook</text>
</g>
<!-- user&#45;&gt;orderbook -->
<g id="edge4" class="edge">
<title>user&#45;&gt;orderbook</title>
<path fill="none" stroke="#000000" d="M49.9221,-157.435C59.481,-157.435 70.8095,-157.435 82.1305,-157.435"/>
<polygon fill="#000000" stroke="#000000" points="82.4742,-160.9351 92.4742,-157.435 82.4742,-153.9351 82.4742,-160.9351"/>
<text text-anchor="middle" x="71.1803" y="-160.235" font-family="Times,serif" font-size="14.00" fill="#000000">1</text>
</g>
<!-- lease -->
<g id="node6" class="node">
<title>lease</title>
<ellipse fill="none" stroke="#000000" cx="139.1326" cy="-47.435" rx="27.5633" ry="27.5633"/>
<text text-anchor="middle" x="139.1326" y="-43.235" font-family="Times,serif" font-size="14.00" fill="#000000">lease</text>
</g>
<!-- orderbook&#45;&gt;lease -->
<g id="edge5" class="edge">
<title>orderbook&#45;&gt;lease</title>
<path fill="none" stroke="#000000" d="M139.1326,-110.6405C139.1326,-102.3179 139.1326,-93.7389 139.1326,-85.6889"/>
<polygon fill="#000000" stroke="#000000" points="142.6327,-85.4772 139.1326,-75.4772 135.6327,-85.4773 142.6327,-85.4772"/>
<text text-anchor="middle" x="129.1326" y="-88.8993" font-family="Times,serif" font-size="14.00" fill="#000000">3</text>
</g>
<!-- dc&#45;1 -->
<g id="node3" class="node">
<title>dc&#45;1</title>
<ellipse fill="none" stroke="#000000" cx="275.0198" cy="-268.435" rx="46.3701" ry="46.3701"/>
<text text-anchor="middle" x="275.0198" y="-264.235" font-family="Times,serif" font-size="14.00" fill="#000000">datacenter</text>
</g>
<!-- dc&#45;1&#45;&gt;orderbook -->
<g id="edge1" class="edge">
<title>dc&#45;1&#45;&gt;orderbook</title>
<path fill="none" stroke="#000000" d="M238.7928,-238.8428C221.7239,-224.9 201.2118,-208.1446 183.2453,-193.4686"/>
<polygon fill="#000000" stroke="#000000" points="185.1499,-190.5052 175.1911,-186.8895 180.7216,-195.9264 185.1499,-190.5052"/>
<text text-anchor="middle" x="207.0849" y="-215.235" font-family="Times,serif" font-size="14.00" fill="#000000">2</text>
</g>
<!-- dc&#45;2 -->
<g id="node4" class="node">
<title>dc&#45;2</title>
<ellipse fill="none" stroke="#000000" cx="275.0198" cy="-157.435" rx="46.3701" ry="46.3701"/>
<text text-anchor="middle" x="275.0198" y="-153.235" font-family="Times,serif" font-size="14.00" fill="#000000">datacenter</text>
</g>
<!-- dc&#45;2&#45;&gt;orderbook -->
<g id="edge2" class="edge">
<title>dc&#45;2&#45;&gt;orderbook</title>
<path fill="none" stroke="#000000" d="M228.169,-157.435C217.8091,-157.435 206.7229,-157.435 196.0135,-157.435"/>
<polygon fill="#000000" stroke="#000000" points="195.8973,-153.9351 185.8973,-157.435 195.8972,-160.9351 195.8973,-153.9351"/>
<text text-anchor="middle" x="207.0849" y="-160.235" font-family="Times,serif" font-size="14.00" fill="#000000">2</text>
</g>
<!-- dc&#45;3 -->
<g id="node5" class="node">
<title>dc&#45;3</title>
<ellipse fill="none" stroke="#000000" cx="275.0198" cy="-46.435" rx="46.3701" ry="46.3701"/>
<text text-anchor="middle" x="275.0198" y="-42.235" font-family="Times,serif" font-size="14.00" fill="#000000">datacenter</text>
</g>
<!-- dc&#45;3&#45;&gt;orderbook -->
<g id="edge3" class="edge">
<title>dc&#45;3&#45;&gt;orderbook</title>
<path fill="none" stroke="#000000" d="M238.7928,-76.0272C221.7239,-89.97 201.2118,-106.7254 183.2453,-121.4013"/>
<polygon fill="#000000" stroke="#000000" points="180.7216,-118.9436 175.1911,-127.9804 185.1499,-124.3648 180.7216,-118.9436"/>
<text text-anchor="middle" x="207.0849" y="-104.235" font-family="Times,serif" font-size="14.00" fill="#000000">2</text>
</g>
</g>
</svg>
