<?xml version="1.0" encoding="UTF-8" standalone="no"?>
<!DOCTYPE svg PUBLIC "-//W3C//DTD SVG 1.1//EN"
 "http://www.w3.org/Graphics/SVG/1.1/DTD/svg11.dtd">
<!-- Generated by graphviz version 2.40.1 (20161225.0304)
 -->
<!-- Title: marketplace Pages: 1 -->
<svg width="713pt" height="344pt"
 viewBox="0.00 0.00 713.43 344.00" xmlns="http://www.w3.org/2000/svg" xmlns:xlink="http://www.w3.org/1999/xlink">
<g id="graph0" class="graph" transform="scale(1 1) rotate(0) translate(4 340)">
<title>marketplace</title>
<polygon fill="#ffffff" stroke="transparent" points="-4,4 -4,-340 709.4287,-340 709.4287,4 -4,4"/>
<!-- 0 -->
<g id="node1" class="node">
<title>0</title>
<polygon fill="none" stroke="#000000" points="54,-336 0,-336 0,-300 54,-300 54,-336"/>
</g>
<!-- 1 -->
<g id="node2" class="node">
<title>1</title>
<polygon fill="none" stroke="#000000" points="377.5994,-336 219.2121,-336 219.2121,-300 377.5994,-300 377.5994,-336"/>
<text text-anchor="start" x="227.0591" y="-320.8" font-family="Times,serif" font-size="14.00" fill="#000000">Deployment: Active</text>
<text text-anchor="start" x="227.0591" y="-306.8" font-family="Times,serif" font-size="14.00" fill="#000000">DeploymentGroup: Open</text>
</g>
<!-- 0&#45;&gt;1 -->
<g id="edge1" class="edge">
<title>0&#45;&gt;1</title>
<path fill="none" stroke="#000000" d="M54.0157,-318C89.8518,-318 154.8711,-318 208.8397,-318"/>
<polygon fill="#000000" stroke="#000000" points="209.1259,-321.5001 219.1259,-318 209.1258,-314.5001 209.1259,-321.5001"/>
<text text-anchor="middle" x="132.645" y="-320.8" font-family="Times,serif" font-size="14.00" fill="#000000">TxCreateDeployment</text>
</g>
<!-- 2 -->
<g id="node3" class="node">
<title>2</title>
<polygon fill="none" stroke="#000000" points="385.6374,-264 211.1742,-264 211.1742,-214 385.6374,-214 385.6374,-264"/>
<text text-anchor="start" x="219.29" y="-248.8" font-family="Times,serif" font-size="14.00" fill="#000000">Deployment: Active</text>
<text text-anchor="start" x="219.29" y="-234.8" font-family="Times,serif" font-size="14.00" fill="#000000">DeploymentGroup: Ordered</text>
<text text-anchor="start" x="219.29" y="-220.8" font-family="Times,serif" font-size="14.00" fill="#000000">Order: Open</text>
</g>
<!-- 1&#45;&gt;2 -->
<g id="edge2" class="edge">
<title>1&#45;&gt;2</title>
<path fill="none" stroke="#000000" d="M298.4058,-299.8758C298.4058,-292.325 298.4058,-283.2829 298.4058,-274.5064"/>
<polygon fill="#000000" stroke="#000000" points="301.9059,-274.4309 298.4058,-264.4309 294.9059,-274.431 301.9059,-274.4309"/>
<text text-anchor="middle" x="288.4058" y="-277.8" font-family="Times,serif" font-size="14.00" fill="#000000">TxCreateOrder</text>
</g>
<!-- 5 -->
<g id="node6" class="node">
<title>5</title>
<polygon fill="none" stroke="#000000" points="705.5583,-336 538.0403,-336 538.0403,-300 705.5583,-300 705.5583,-336"/>
<text text-anchor="start" x="546.1699" y="-320.8" font-family="Times,serif" font-size="14.00" fill="#000000">Deployment: Closed</text>
<text text-anchor="start" x="546.1699" y="-306.8" font-family="Times,serif" font-size="14.00" fill="#000000">DeploymentGroup: Closed</text>
</g>
<!-- 1&#45;&gt;5 -->
<g id="edge5" class="edge">
<title>1&#45;&gt;5</title>
<path fill="none" stroke="#000000" d="M377.9309,-318C423.2319,-318 480.2524,-318 527.7641,-318"/>
<polygon fill="#000000" stroke="#000000" points="528.0607,-321.5001 538.0607,-318 528.0607,-314.5001 528.0607,-321.5001"/>
<text text-anchor="middle" x="461.8457" y="-320.8" font-family="Times,serif" font-size="14.00" fill="#000000">TxCloseDeployment</text>
</g>
<!-- 3 -->
<g id="node4" class="node">
<title>3</title>
<polygon fill="none" stroke="#000000" points="385.6374,-178 211.1742,-178 211.1742,-114 385.6374,-114 385.6374,-178"/>
<text text-anchor="start" x="219.29" y="-162.8" font-family="Times,serif" font-size="14.00" fill="#000000">Deployment: Active</text>
<text text-anchor="start" x="219.29" y="-148.8" font-family="Times,serif" font-size="14.00" fill="#000000">DeploymentGroup: Ordered</text>
<text text-anchor="start" x="219.29" y="-134.8" font-family="Times,serif" font-size="14.00" fill="#000000">Order: Open</text>
<text text-anchor="start" x="219.29" y="-120.8" font-family="Times,serif" font-size="14.00" fill="#000000">Fulfillment: Open</text>
</g>
<!-- 2&#45;&gt;3 -->
<g id="edge3" class="edge">
<title>2&#45;&gt;3</title>
<path fill="none" stroke="#000000" d="M298.4058,-213.986C298.4058,-206.0328 298.4058,-197.0048 298.4058,-188.1855"/>
<polygon fill="#000000" stroke="#000000" points="301.9059,-188.0053 298.4058,-178.0053 294.9059,-188.0054 301.9059,-188.0053"/>
<text text-anchor="middle" x="288.4058" y="-191.8" font-family="Times,serif" font-size="14.00" fill="#000000">TxCreateFulfillment</text>
</g>
<!-- 6 -->
<g id="node7" class="node">
<title>6</title>
<polygon fill="none" stroke="#000000" points="705.5583,-264 538.0403,-264 538.0403,-214 705.5583,-214 705.5583,-264"/>
<text text-anchor="start" x="546.1699" y="-248.8" font-family="Times,serif" font-size="14.00" fill="#000000">Deployment: Closed</text>
<text text-anchor="start" x="546.1699" y="-234.8" font-family="Times,serif" font-size="14.00" fill="#000000">DeploymentGroup: Closed</text>
<text text-anchor="start" x="546.1699" y="-220.8" font-family="Times,serif" font-size="14.00" fill="#000000">Order: Closed</text>
</g>
<!-- 2&#45;&gt;6 -->
<g id="edge6" class="edge">
<title>2&#45;&gt;6</title>
<path fill="none" stroke="#000000" d="M385.9207,-239C429.9191,-239 483.2731,-239 528.1012,-239"/>
<polygon fill="#000000" stroke="#000000" points="528.1183,-242.5001 538.1182,-239 528.1182,-235.5001 528.1183,-242.5001"/>
<text text-anchor="middle" x="461.8457" y="-241.8" font-family="Times,serif" font-size="14.00" fill="#000000">TxCloseDeployment</text>
</g>
<!-- 4 -->
<g id="node5" class="node">
<title>4</title>
<polygon fill="none" stroke="#000000" points="385.6374,-78 211.1742,-78 211.1742,0 385.6374,0 385.6374,-78"/>
<text text-anchor="start" x="219.29" y="-62.8" font-family="Times,serif" font-size="14.00" fill="#000000">Deployment: Active</text>
<text text-anchor="start" x="219.29" y="-48.8" font-family="Times,serif" font-size="14.00" fill="#000000">DeploymentGroup: Ordered</text>
<text text-anchor="start" x="219.29" y="-34.8" font-family="Times,serif" font-size="14.00" fill="#000000">Order: Matched</text>
<text text-anchor="start" x="219.29" y="-20.8" font-family="Times,serif" font-size="14.00" fill="#000000">Fulfillment: Matched</text>
<text text-anchor="start" x="219.29" y="-6.8" font-family="Times,serif" font-size="14.00" fill="#000000">Lease: Active</text>
</g>
<!-- 3&#45;&gt;4 -->
<g id="edge4" class="edge">
<title>3&#45;&gt;4</title>
<path fill="none" stroke="#000000" d="M298.4058,-113.7831C298.4058,-105.7424 298.4058,-96.9353 298.4058,-88.2767"/>
<polygon fill="#000000" stroke="#000000" points="301.9059,-88.2352 298.4058,-78.2353 294.9059,-88.2353 301.9059,-88.2352"/>
<text text-anchor="middle" x="288.4058" y="-91.8" font-family="Times,serif" font-size="14.00" fill="#000000">TxCreateLease</text>
</g>
<!-- 7 -->
<g id="node8" class="node">
<title>7</title>
<polygon fill="none" stroke="#000000" points="705.5583,-178 538.0403,-178 538.0403,-114 705.5583,-114 705.5583,-178"/>
<text text-anchor="start" x="546.1699" y="-162.8" font-family="Times,serif" font-size="14.00" fill="#000000">Deployment: Closed</text>
<text text-anchor="start" x="546.1699" y="-148.8" font-family="Times,serif" font-size="14.00" fill="#000000">DeploymentGroup: Closed</text>
<text text-anchor="start" x="546.1699" y="-134.8" font-family="Times,serif" font-size="14.00" fill="#000000">Order: Closed</text>
<text text-anchor="start" x="546.1699" y="-120.8" font-family="Times,serif" font-size="14.00" fill="#000000">Fulfillment: Closed</text>
</g>
<!-- 3&#45;&gt;7 -->
<g id="edge7" class="edge">
<title>3&#45;&gt;7</title>
<path fill="none" stroke="#000000" d="M385.9207,-146C429.9191,-146 483.2731,-146 528.1012,-146"/>
<polygon fill="#000000" stroke="#000000" points="528.1183,-149.5001 538.1182,-146 528.1182,-142.5001 528.1183,-149.5001"/>
<text text-anchor="middle" x="461.8457" y="-148.8" font-family="Times,serif" font-size="14.00" fill="#000000">TxCloseDeployment</text>
</g>
<!-- 8 -->
<g id="node9" class="node">
<title>8</title>
<polygon fill="none" stroke="#000000" points="705.5583,-78 538.0403,-78 538.0403,0 705.5583,0 705.5583,-78"/>
<text text-anchor="start" x="546.1699" y="-62.8" font-family="Times,serif" font-size="14.00" fill="#000000">Deployment: Closed</text>
<text text-anchor="start" x="546.1699" y="-48.8" font-family="Times,serif" font-size="14.00" fill="#000000">DeploymentGroup: Closed</text>
<text text-anchor="start" x="546.1699" y="-34.8" font-family="Times,serif" font-size="14.00" fill="#000000">Order: Closed</text>
<text text-anchor="start" x="546.1699" y="-20.8" font-family="Times,serif" font-size="14.00" fill="#000000">Fulfillment: Closed</text>
<text text-anchor="start" x="546.1699" y="-6.8" font-family="Times,serif" font-size="14.00" fill="#000000">Lease: Closed</text>
</g>
<!-- 4&#45;&gt;8 -->
<g id="edge8" class="edge">
<title>4&#45;&gt;8</title>
<path fill="none" stroke="#000000" d="M385.9207,-39C429.9191,-39 483.2731,-39 528.1012,-39"/>
<polygon fill="#000000" stroke="#000000" points="528.1183,-42.5001 538.1182,-39 528.1182,-35.5001 528.1183,-42.5001"/>
<text text-anchor="middle" x="461.8457" y="-41.8" font-family="Times,serif" font-size="14.00" fill="#000000">TxCloseDeployment</text>
</g>
</g>
</svg>
