<?xml version="1.0" encoding="UTF-8" standalone="no"?>
<!DOCTYPE svg PUBLIC "-//W3C//DTD SVG 1.1//EN"
 "http://www.w3.org/Graphics/SVG/1.1/DTD/svg11.dtd">
<!-- Generated by graphviz version 2.40.1 (20161225.0304)
 -->
<!-- Title: marketplace Pages: 1 -->
<svg width="925pt" height="344pt"
 viewBox="0.00 0.00 924.67 344.00" xmlns="http://www.w3.org/2000/svg" xmlns:xlink="http://www.w3.org/1999/xlink">
<g id="graph0" class="graph" transform="scale(1 1) rotate(0) translate(4 340)">
<title>marketplace</title>
<polygon fill="#ffffff" stroke="transparent" points="-4,4 -4,-340 920.667,-340 920.667,4 -4,4"/>
<!-- 0 -->
<g id="node1" class="node">
<title>0</title>
<polygon fill="none" stroke="#000000" points="54,-336 0,-336 0,-300 54,-300 54,-336"/>
</g>
<!-- 1 -->
<g id="node2" class="node">
<title>1</title>
<polygon fill="none" stroke="#000000" points="377.5994,-336 219.2121,-336 219.2121,-300 377.5994,-300 377.5994,-336"/>
<text text-anchor="start" x="227.0591" y="-320.8" font-family="Times,serif" font-size="14.00" fill="#000000">Deployment: Active</text>
<text text-anchor="start" x="227.0591" y="-306.8" font-family="Times,serif" font-size="14.00" fill="#000000">DeploymentGroup: Open</text>
</g>
<!-- 0&#45;&gt;1 -->
<g id="edge1" class="edge">
<title>0&#45;&gt;1</title>
<path fill="none" stroke="#000000" d="M54.0157,-318C89.8518,-318 154.8711,-318 208.8397,-318"/>
<polygon fill="#000000" stroke="#000000" points="209.1259,-321.5001 219.1259,-318 209.1258,-314.5001 209.1259,-321.5001"/>
<text text-anchor="middle" x="132.645" y="-320.8" font-family="Times,serif" font-size="14.00" fill="#000000">TxCreateDeployment</text>
</g>
<!-- 2 -->
<g id="node3" class="node">
<title>2</title>
<polygon fill="none" stroke="#000000" points="385.6374,-264 211.1742,-264 211.1742,-214 385.6374,-214 385.6374,-264"/>
<text text-anchor="start" x="219.29" y="-248.8" font-family="Times,serif" font-size="14.00" fill="#000000">Deployment: Active</text>
<text text-anchor="start" x="219.29" y="-234.8" font-family="Times,serif" font-size="14.00" fill="#000000">DeploymentGroup: Ordered</text>
<text text-anchor="start" x="219.29" y="-220.8" font-family="Times,serif" font-size="14.00" fill="#000000">Order: Open</text>
</g>
<!-- 1&#45;&gt;2 -->
<g id="edge2" class="edge">
<title>1&#45;&gt;2</title>
<path fill="none" stroke="#000000" d="M298.4058,-299.8758C298.4058,-292.325 298.4058,-283.2829 298.4058,-274.5064"/>
<polygon fill="#000000" stroke="#000000" points="301.9059,-274.4309 298.4058,-264.4309 294.9059,-274.431 301.9059,-274.4309"/>
<text text-anchor="middle" x="288.4058" y="-277.8" font-family="Times,serif" font-size="14.00" fill="#000000">TxCreateOrder</text>
</g>
<!-- 5 -->
<g id="node6" class="node">
<title>5</title>
<polygon fill="none" stroke="#000000" points="712.5378,-336 545.0198,-336 545.0198,-300 712.5378,-300 712.5378,-336"/>
<text text-anchor="start" x="553.1494" y="-320.8" font-family="Times,serif" font-size="14.00" fill="#000000">Deployment: Closing</text>
<text text-anchor="start" x="553.1494" y="-306.8" font-family="Times,serif" font-size="14.00" fill="#000000">DeploymentGroup: Closed</text>
</g>
<!-- 1&#45;&gt;5 -->
<g id="edge5" class="edge">
<title>1&#45;&gt;5</title>
<path fill="none" stroke="#000000" d="M377.9588,-318C425.2052,-318 485.3703,-318 534.9306,-318"/>
<polygon fill="#000000" stroke="#000000" points="535.0152,-321.5001 545.0151,-318 535.0151,-314.5001 535.0152,-321.5001"/>
<text text-anchor="middle" x="465.3354" y="-320.8" font-family="Times,serif" font-size="14.00" fill="#000000">TxCancelDeployment</text>
</g>
<!-- 3 -->
<g id="node4" class="node">
<title>3</title>
<polygon fill="none" stroke="#000000" points="385.6374,-178 211.1742,-178 211.1742,-114 385.6374,-114 385.6374,-178"/>
<text text-anchor="start" x="219.29" y="-162.8" font-family="Times,serif" font-size="14.00" fill="#000000">Deployment: Active</text>
<text text-anchor="start" x="219.29" y="-148.8" font-family="Times,serif" font-size="14.00" fill="#000000">DeploymentGroup: Ordered</text>
<text text-anchor="start" x="219.29" y="-134.8" font-family="Times,serif" font-size="14.00" fill="#000000">Order: Open</text>
<text text-anchor="start" x="219.29" y="-120.8" font-family="Times,serif" font-size="14.00" fill="#000000">Fulfillment: Open</text>
</g>
<!-- 2&#45;&gt;3 -->
<g id="edge3" class="edge">
<title>2&#45;&gt;3</title>
<path fill="none" stroke="#000000" d="M298.4058,-213.986C298.4058,-206.0328 298.4058,-197.0048 298.4058,-188.1855"/>
<polygon fill="#000000" stroke="#000000" points="301.9059,-188.0053 298.4058,-178.0053 294.9059,-188.0054 301.9059,-188.0053"/>
<text text-anchor="middle" x="288.4058" y="-191.8" font-family="Times,serif" font-size="14.00" fill="#000000">TxCreateFulfillment</text>
</g>
<!-- 6 -->
<g id="node7" class="node">
<title>6</title>
<polygon fill="none" stroke="#000000" points="712.5378,-264 545.0198,-264 545.0198,-214 712.5378,-214 712.5378,-264"/>
<text text-anchor="start" x="553.1494" y="-248.8" font-family="Times,serif" font-size="14.00" fill="#000000">Deployment: Closing</text>
<text text-anchor="start" x="553.1494" y="-234.8" font-family="Times,serif" font-size="14.00" fill="#000000">DeploymentGroup: Closed</text>
<text text-anchor="start" x="553.1494" y="-220.8" font-family="Times,serif" font-size="14.00" fill="#000000">Order: Closed</text>
</g>
<!-- 2&#45;&gt;6 -->
<g id="edge6" class="edge">
<title>2&#45;&gt;6</title>
<path fill="none" stroke="#000000" d="M385.6395,-239C431.5902,-239 487.9829,-239 534.8863,-239"/>
<polygon fill="#000000" stroke="#000000" points="535.0498,-242.5001 545.0498,-239 535.0497,-235.5001 535.0498,-242.5001"/>
<text text-anchor="middle" x="465.3354" y="-241.8" font-family="Times,serif" font-size="14.00" fill="#000000">TxCancelDeployment</text>
</g>
<!-- 4 -->
<g id="node5" class="node">
<title>4</title>
<polygon fill="none" stroke="#000000" points="385.6374,-78 211.1742,-78 211.1742,0 385.6374,0 385.6374,-78"/>
<text text-anchor="start" x="219.29" y="-62.8" font-family="Times,serif" font-size="14.00" fill="#000000">Deployment: Active</text>
<text text-anchor="start" x="219.29" y="-48.8" font-family="Times,serif" font-size="14.00" fill="#000000">DeploymentGroup: Ordered</text>
<text text-anchor="start" x="219.29" y="-34.8" font-family="Times,serif" font-size="14.00" fill="#000000">Order: Matched</text>
<text text-anchor="start" x="219.29" y="-20.8" font-family="Times,serif" font-size="14.00" fill="#000000">Fulfillment: Matched</text>
<text text-anchor="start" x="219.29" y="-6.8" font-family="Times,serif" font-size="14.00" fill="#000000">Lease: Active</text>
</g>
<!-- 3&#45;&gt;4 -->
<g id="edge4" class="edge">
<title>3&#45;&gt;4</title>
<path fill="none" stroke="#000000" d="M298.4058,-113.7831C298.4058,-105.7424 298.4058,-96.9353 298.4058,-88.2767"/>
<polygon fill="#000000" stroke="#000000" points="301.9059,-88.2352 298.4058,-78.2353 294.9059,-88.2353 301.9059,-88.2352"/>
<text text-anchor="middle" x="288.4058" y="-91.8" font-family="Times,serif" font-size="14.00" fill="#000000">TxCreateLease</text>
</g>
<!-- 7 -->
<g id="node8" class="node">
<title>7</title>
<polygon fill="none" stroke="#000000" points="712.5378,-178 545.0198,-178 545.0198,-114 712.5378,-114 712.5378,-178"/>
<text text-anchor="start" x="553.1494" y="-162.8" font-family="Times,serif" font-size="14.00" fill="#000000">Deployment: Closing</text>
<text text-anchor="start" x="553.1494" y="-148.8" font-family="Times,serif" font-size="14.00" fill="#000000">DeploymentGroup: Closed</text>
<text text-anchor="start" x="553.1494" y="-134.8" font-family="Times,serif" font-size="14.00" fill="#000000">Order: Closed</text>
<text text-anchor="start" x="553.1494" y="-120.8" font-family="Times,serif" font-size="14.00" fill="#000000">Fulfillment: Closed</text>
</g>
<!-- 3&#45;&gt;7 -->
<g id="edge7" class="edge">
<title>3&#45;&gt;7</title>
<path fill="none" stroke="#000000" d="M385.6395,-146C431.5902,-146 487.9829,-146 534.8863,-146"/>
<polygon fill="#000000" stroke="#000000" points="535.0498,-149.5001 545.0498,-146 535.0497,-142.5001 535.0498,-149.5001"/>
<text text-anchor="middle" x="465.3354" y="-148.8" font-family="Times,serif" font-size="14.00" fill="#000000">TxCancelDeployment</text>
</g>
<!-- 8 -->
<g id="node9" class="node">
<title>8</title>
<polygon fill="none" stroke="#000000" points="712.5378,-78 545.0198,-78 545.0198,0 712.5378,0 712.5378,-78"/>
<text text-anchor="start" x="553.1494" y="-62.8" font-family="Times,serif" font-size="14.00" fill="#000000">Deployment: Closing</text>
<text text-anchor="start" x="553.1494" y="-48.8" font-family="Times,serif" font-size="14.00" fill="#000000">DeploymentGroup: Closed</text>
<text text-anchor="start" x="553.1494" y="-34.8" font-family="Times,serif" font-size="14.00" fill="#000000">Order: Closed</text>
<text text-anchor="start" x="553.1494" y="-20.8" font-family="Times,serif" font-size="14.00" fill="#000000">Fulfillment: Closed</text>
<text text-anchor="start" x="553.1494" y="-6.8" font-family="Times,serif" font-size="14.00" fill="#000000">Lease: Closed</text>
</g>
<!-- 4&#45;&gt;8 -->
<g id="edge8" class="edge">
<title>4&#45;&gt;8</title>
<path fill="none" stroke="#000000" d="M385.6395,-39C431.5902,-39 487.9829,-39 534.8863,-39"/>
<polygon fill="#000000" stroke="#000000" points="535.0498,-42.5001 545.0498,-39 535.0497,-35.5001 535.0498,-42.5001"/>
<text text-anchor="middle" x="465.3354" y="-41.8" font-family="Times,serif" font-size="14.00" fill="#000000">TxCancelDeployment</text>
</g>
<!-- 9 -->
<g id="node10" class="node">
<title>9</title>
<polygon fill="none" stroke="#000000" points="916.7966,-336 749.2786,-336 749.2786,-300 916.7966,-300 916.7966,-336"/>
<text text-anchor="start" x="757.4082" y="-320.8" font-family="Times,serif" font-size="14.00" fill="#000000">Deployment: Closed</text>
<text text-anchor="start" x="757.4082" y="-306.8" font-family="Times,serif" font-size="14.00" fill="#000000">DeploymentGroup: Closed</text>
</g>
<!-- 5&#45;&gt;9 -->
<g id="edge9" class="edge">
<title>5&#45;&gt;9</title>
<path fill="none" stroke="#000000" d="M712.448,-318C721.2533,-318 730.248,-318 739.1583,-318"/>
<polygon fill="#000000" stroke="#000000" points="739.168,-321.5001 749.168,-318 739.1679,-314.5001 739.168,-321.5001"/>
</g>
<!-- 10 -->
<g id="node11" class="node">
<title>10</title>
<polygon fill="none" stroke="#000000" points="916.7966,-264 749.2786,-264 749.2786,-214 916.7966,-214 916.7966,-264"/>
<text text-anchor="start" x="757.4082" y="-248.8" font-family="Times,serif" font-size="14.00" fill="#000000">Deployment: Closed</text>
<text text-anchor="start" x="757.4082" y="-234.8" font-family="Times,serif" font-size="14.00" fill="#000000">DeploymentGroup: Closed</text>
<text text-anchor="start" x="757.4082" y="-220.8" font-family="Times,serif" font-size="14.00" fill="#000000">Order: Closed</text>
</g>
<!-- 6&#45;&gt;10 -->
<g id="edge10" class="edge">
<title>6&#45;&gt;10</title>
<path fill="none" stroke="#000000" d="M712.448,-239C721.2533,-239 730.248,-239 739.1583,-239"/>
<polygon fill="#000000" stroke="#000000" points="739.168,-242.5001 749.168,-239 739.1679,-235.5001 739.168,-242.5001"/>
</g>
<!-- 11 -->
<g id="node12" class="node">
<title>11</title>
<polygon fill="none" stroke="#000000" points="916.7966,-178 749.2786,-178 749.2786,-114 916.7966,-114 916.7966,-178"/>
<text text-anchor="start" x="757.4082" y="-162.8" font-family="Times,serif" font-size="14.00" fill="#000000">Deployment: Closed</text>
<text text-anchor="start" x="757.4082" y="-148.8" font-family="Times,serif" font-size="14.00" fill="#000000">DeploymentGroup: Closed</text>
<text text-anchor="start" x="757.4082" y="-134.8" font-family="Times,serif" font-size="14.00" fill="#000000">Order: Closed</text>
<text text-anchor="start" x="757.4082" y="-120.8" font-family="Times,serif" font-size="14.00" fill="#000000">Fulfillment: Closed</text>
</g>
<!-- 7&#45;&gt;11 -->
<g id="edge11" class="edge">
<title>7&#45;&gt;11</title>
<path fill="none" stroke="#000000" d="M712.448,-146C721.2533,-146 730.248,-146 739.1583,-146"/>
<polygon fill="#000000" stroke="#000000" points="739.168,-149.5001 749.168,-146 739.1679,-142.5001 739.168,-149.5001"/>
</g>
<!-- 12 -->
<g id="node13" class="node">
<title>12</title>
<polygon fill="none" stroke="#000000" points="916.7966,-78 749.2786,-78 749.2786,0 916.7966,0 916.7966,-78"/>
<text text-anchor="start" x="757.4082" y="-62.8" font-family="Times,serif" font-size="14.00" fill="#000000">Deployment: Closed</text>
<text text-anchor="start" x="757.4082" y="-48.8" font-family="Times,serif" font-size="14.00" fill="#000000">DeploymentGroup: Closed</text>
<text text-anchor="start" x="757.4082" y="-34.8" font-family="Times,serif" font-size="14.00" fill="#000000">Order: Closed</text>
<text text-anchor="start" x="757.4082" y="-20.8" font-family="Times,serif" font-size="14.00" fill="#000000">Fulfillment: Closed</text>
<text text-anchor="start" x="757.4082" y="-6.8" font-family="Times,serif" font-size="14.00" fill="#000000">Lease: Closed</text>
</g>
<!-- 8&#45;&gt;12 -->
<g id="edge12" class="edge">
<title>8&#45;&gt;12</title>
<path fill="none" stroke="#000000" d="M712.448,-39C721.2533,-39 730.248,-39 739.1583,-39"/>
<polygon fill="#000000" stroke="#000000" points="739.168,-42.5001 749.168,-39 739.1679,-35.5001 739.168,-42.5001"/>
</g>
</g>
</svg>
