<?xml version="1.0" encoding="UTF-8" standalone="no"?>
<!DOCTYPE svg PUBLIC "-//W3C//DTD SVG 1.1//EN"
 "http://www.w3.org/Graphics/SVG/1.1/DTD/svg11.dtd">
<!-- Generated by graphviz version 2.40.1 (20161225.0304)
 -->
<!-- Title: marketplace Pages: 1 -->
<svg width="1062pt" height="344pt"
 viewBox="0.00 0.00 1062.11 344.00" xmlns="http://www.w3.org/2000/svg" xmlns:xlink="http://www.w3.org/1999/xlink">
<g id="graph0" class="graph" transform="scale(1 1) rotate(0) translate(4 340)">
<title>marketplace</title>
<polygon fill="#ffffff" stroke="transparent" points="-4,4 -4,-340 1058.1084,-340 1058.1084,4 -4,4"/>
<!-- 0 -->
<g id="node1" class="node">
<title>0</title>
<polygon fill="none" stroke="#000000" points="54,-336 0,-336 0,-300 54,-300 54,-336"/>
</g>
<!-- 1 -->
<g id="node2" class="node">
<title>1</title>
<polygon fill="none" stroke="#000000" points="377.5994,-336 219.2121,-336 219.2121,-300 377.5994,-300 377.5994,-336"/>
<text text-anchor="start" x="227.0591" y="-320.8" font-family="Times,serif" font-size="14.00" fill="#000000">Deployment: Active</text>
<text text-anchor="start" x="227.0591" y="-306.8" font-family="Times,serif" font-size="14.00" fill="#000000">DeploymentGroup: Open</text>
</g>
<!-- 0&#45;&gt;1 -->
<g id="edge1" class="edge">
<title>0&#45;&gt;1</title>
<path fill="none" stroke="#000000" d="M54.0157,-318C89.8518,-318 154.8711,-318 208.8397,-318"/>
<polygon fill="#000000" stroke="#000000" points="209.1259,-321.5001 219.1259,-318 209.1258,-314.5001 209.1259,-321.5001"/>
<text text-anchor="middle" x="132.645" y="-320.8" font-family="Times,serif" font-size="14.00" fill="#000000">TxCreateDeployment</text>
</g>
<!-- 2 -->
<g id="node3" class="node">
<title>2</title>
<polygon fill="none" stroke="#000000" points="385.6374,-264 211.1742,-264 211.1742,-214 385.6374,-214 385.6374,-264"/>
<text text-anchor="start" x="219.29" y="-248.8" font-family="Times,serif" font-size="14.00" fill="#000000">Deployment: Active</text>
<text text-anchor="start" x="219.29" y="-234.8" font-family="Times,serif" font-size="14.00" fill="#000000">DeploymentGroup: Ordered</text>
<text text-anchor="start" x="219.29" y="-220.8" font-family="Times,serif" font-size="14.00" fill="#000000">Order: Open</text>
</g>
<!-- 1&#45;&gt;2 -->
<g id="edge2" class="edge">
<title>1&#45;&gt;2</title>
<path fill="none" stroke="#000000" d="M298.4058,-299.8758C298.4058,-292.325 298.4058,-283.2829 298.4058,-274.5064"/>
<polygon fill="#000000" stroke="#000000" points="301.9059,-274.4309 298.4058,-264.4309 294.9059,-274.431 301.9059,-274.4309"/>
<text text-anchor="middle" x="288.4058" y="-277.8" font-family="Times,serif" font-size="14.00" fill="#000000">TxCreateOrder</text>
</g>
<!-- 5 -->
<g id="node6" class="node">
<title>5</title>
<polygon fill="none" stroke="#000000" points="734.3308,-336 566.8128,-336 566.8128,-300 734.3308,-300 734.3308,-336"/>
<text text-anchor="start" x="574.9424" y="-320.8" font-family="Times,serif" font-size="14.00" fill="#000000">Deployment: Closing</text>
<text text-anchor="start" x="574.9424" y="-306.8" font-family="Times,serif" font-size="14.00" fill="#000000">DeploymentGroup: Closed</text>
</g>
<!-- 1&#45;&gt;5 -->
<g id="edge5" class="edge">
<title>1&#45;&gt;5</title>
<path fill="none" stroke="#000000" d="M377.8778,-318C430.8747,-318 500.7829,-318 556.5478,-318"/>
<polygon fill="#000000" stroke="#000000" points="556.7885,-321.5001 566.7884,-318 556.7884,-314.5001 556.7885,-321.5001"/>
<text text-anchor="middle" x="476.2319" y="-320.8" font-family="Times,serif" font-size="14.00" fill="#000000">TxCloseDeploymetGroup</text>
</g>
<!-- 3 -->
<g id="node4" class="node">
<title>3</title>
<polygon fill="none" stroke="#000000" points="385.6374,-178 211.1742,-178 211.1742,-114 385.6374,-114 385.6374,-178"/>
<text text-anchor="start" x="219.29" y="-162.8" font-family="Times,serif" font-size="14.00" fill="#000000">Deployment: Active</text>
<text text-anchor="start" x="219.29" y="-148.8" font-family="Times,serif" font-size="14.00" fill="#000000">DeploymentGroup: Ordered</text>
<text text-anchor="start" x="219.29" y="-134.8" font-family="Times,serif" font-size="14.00" fill="#000000">Order: Open</text>
<text text-anchor="start" x="219.29" y="-120.8" font-family="Times,serif" font-size="14.00" fill="#000000">Fulfillment: Open</text>
</g>
<!-- 2&#45;&gt;3 -->
<g id="edge3" class="edge">
<title>2&#45;&gt;3</title>
<path fill="none" stroke="#000000" d="M298.4058,-213.986C298.4058,-206.0328 298.4058,-197.0048 298.4058,-188.1855"/>
<polygon fill="#000000" stroke="#000000" points="301.9059,-188.0053 298.4058,-178.0053 294.9059,-188.0054 301.9059,-188.0053"/>
<text text-anchor="middle" x="288.4058" y="-191.8" font-family="Times,serif" font-size="14.00" fill="#000000">TxCreateFulfillment</text>
</g>
<!-- 6 -->
<g id="node7" class="node">
<title>6</title>
<polygon fill="none" stroke="#000000" points="734.3308,-264 566.8128,-264 566.8128,-214 734.3308,-214 734.3308,-264"/>
<text text-anchor="start" x="574.9424" y="-248.8" font-family="Times,serif" font-size="14.00" fill="#000000">Deployment: Closing</text>
<text text-anchor="start" x="574.9424" y="-234.8" font-family="Times,serif" font-size="14.00" fill="#000000">DeploymentGroup: Closed</text>
<text text-anchor="start" x="574.9424" y="-220.8" font-family="Times,serif" font-size="14.00" fill="#000000">Order: Closed</text>
</g>
<!-- 2&#45;&gt;6 -->
<g id="edge6" class="edge">
<title>2&#45;&gt;6</title>
<path fill="none" stroke="#000000" d="M385.9105,-239C437.8686,-239 503.7401,-239 556.7683,-239"/>
<polygon fill="#000000" stroke="#000000" points="556.8539,-242.5001 566.8539,-239 556.8539,-235.5001 556.8539,-242.5001"/>
<text text-anchor="start" x="403.5215" y="-255.8" font-family="Times,serif" font-size="14.00" fill="#000000">TxCloseDeploymetGroup</text>
<text text-anchor="start" x="403.5215" y="-241.8" font-family="Times,serif" font-size="14.00" fill="#000000">TxCloseOrder</text>
</g>
<!-- 4 -->
<g id="node5" class="node">
<title>4</title>
<polygon fill="none" stroke="#000000" points="385.6374,-78 211.1742,-78 211.1742,0 385.6374,0 385.6374,-78"/>
<text text-anchor="start" x="219.29" y="-62.8" font-family="Times,serif" font-size="14.00" fill="#000000">Deployment: Active</text>
<text text-anchor="start" x="219.29" y="-48.8" font-family="Times,serif" font-size="14.00" fill="#000000">DeploymentGroup: Ordered</text>
<text text-anchor="start" x="219.29" y="-34.8" font-family="Times,serif" font-size="14.00" fill="#000000">Order: Matched</text>
<text text-anchor="start" x="219.29" y="-20.8" font-family="Times,serif" font-size="14.00" fill="#000000">Fulfillment: Matched</text>
<text text-anchor="start" x="219.29" y="-6.8" font-family="Times,serif" font-size="14.00" fill="#000000">Lease: Active</text>
</g>
<!-- 3&#45;&gt;4 -->
<g id="edge4" class="edge">
<title>3&#45;&gt;4</title>
<path fill="none" stroke="#000000" d="M298.4058,-113.7831C298.4058,-105.7424 298.4058,-96.9353 298.4058,-88.2767"/>
<polygon fill="#000000" stroke="#000000" points="301.9059,-88.2352 298.4058,-78.2353 294.9059,-88.2353 301.9059,-88.2352"/>
<text text-anchor="middle" x="288.4058" y="-91.8" font-family="Times,serif" font-size="14.00" fill="#000000">TxCreateLease</text>
</g>
<!-- 7 -->
<g id="node8" class="node">
<title>7</title>
<polygon fill="none" stroke="#000000" points="734.3308,-178 566.8128,-178 566.8128,-114 734.3308,-114 734.3308,-178"/>
<text text-anchor="start" x="574.9424" y="-162.8" font-family="Times,serif" font-size="14.00" fill="#000000">Deployment: Closing</text>
<text text-anchor="start" x="574.9424" y="-148.8" font-family="Times,serif" font-size="14.00" fill="#000000">DeploymentGroup: Closed</text>
<text text-anchor="start" x="574.9424" y="-134.8" font-family="Times,serif" font-size="14.00" fill="#000000">Order: Closed</text>
<text text-anchor="start" x="574.9424" y="-120.8" font-family="Times,serif" font-size="14.00" fill="#000000">Fulfillment: Closed</text>
</g>
<!-- 3&#45;&gt;7 -->
<g id="edge7" class="edge">
<title>3&#45;&gt;7</title>
<path fill="none" stroke="#000000" d="M385.9105,-146C437.8686,-146 503.7401,-146 556.7683,-146"/>
<polygon fill="#000000" stroke="#000000" points="556.8539,-149.5001 566.8539,-146 556.8539,-142.5001 556.8539,-149.5001"/>
<text text-anchor="start" x="403.5215" y="-176.8" font-family="Times,serif" font-size="14.00" fill="#000000">TxCloseDeploymetGroup</text>
<text text-anchor="start" x="403.5215" y="-162.8" font-family="Times,serif" font-size="14.00" fill="#000000">TxCloseOrder</text>
<text text-anchor="start" x="403.5215" y="-148.8" font-family="Times,serif" font-size="14.00" fill="#000000">TxCloseFulfillment</text>
</g>
<!-- 8 -->
<g id="node9" class="node">
<title>8</title>
<polygon fill="none" stroke="#000000" points="734.3308,-78 566.8128,-78 566.8128,0 734.3308,0 734.3308,-78"/>
<text text-anchor="start" x="574.9424" y="-62.8" font-family="Times,serif" font-size="14.00" fill="#000000">Deployment: Closing</text>
<text text-anchor="start" x="574.9424" y="-48.8" font-family="Times,serif" font-size="14.00" fill="#000000">DeploymentGroup: Closed</text>
<text text-anchor="start" x="574.9424" y="-34.8" font-family="Times,serif" font-size="14.00" fill="#000000">Order: Closed</text>
<text text-anchor="start" x="574.9424" y="-20.8" font-family="Times,serif" font-size="14.00" fill="#000000">Fulfillment: Closed</text>
<text text-anchor="start" x="574.9424" y="-6.8" font-family="Times,serif" font-size="14.00" fill="#000000">Lease: Closed</text>
</g>
<!-- 4&#45;&gt;8 -->
<g id="edge8" class="edge">
<title>4&#45;&gt;8</title>
<path fill="none" stroke="#000000" d="M385.9105,-39C437.8686,-39 503.7401,-39 556.7683,-39"/>
<polygon fill="#000000" stroke="#000000" points="556.8539,-42.5001 566.8539,-39 556.8539,-35.5001 556.8539,-42.5001"/>
<text text-anchor="start" x="403.5215" y="-83.8" font-family="Times,serif" font-size="14.00" fill="#000000">TxCloseDeploymetGroup</text>
<text text-anchor="start" x="403.5215" y="-69.8" font-family="Times,serif" font-size="14.00" fill="#000000">TxCloseOrder</text>
<text text-anchor="start" x="403.5215" y="-55.8" font-family="Times,serif" font-size="14.00" fill="#000000">TxCloseFulfillment</text>
<text text-anchor="start" x="403.5215" y="-41.8" font-family="Times,serif" font-size="14.00" fill="#000000">TxCloseLease</text>
</g>
<!-- 9 -->
<g id="node10" class="node">
<title>9</title>
<polygon fill="none" stroke="#000000" points="1054.238,-336 886.72,-336 886.72,-300 1054.238,-300 1054.238,-336"/>
<text text-anchor="start" x="894.8496" y="-320.8" font-family="Times,serif" font-size="14.00" fill="#000000">Deployment: Closed</text>
<text text-anchor="start" x="894.8496" y="-306.8" font-family="Times,serif" font-size="14.00" fill="#000000">DeploymentGroup: Closed</text>
</g>
<!-- 5&#45;&gt;9 -->
<g id="edge9" class="edge">
<title>5&#45;&gt;9</title>
<path fill="none" stroke="#000000" d="M734.2058,-318C777.9221,-318 831.5726,-318 876.6947,-318"/>
<polygon fill="#000000" stroke="#000000" points="876.7782,-321.5001 886.7781,-318 876.7781,-314.5001 876.7782,-321.5001"/>
<text text-anchor="middle" x="810.5254" y="-320.8" font-family="Times,serif" font-size="14.00" fill="#000000">TxCloseDeployment</text>
</g>
<!-- 10 -->
<g id="node11" class="node">
<title>10</title>
<polygon fill="none" stroke="#000000" points="1054.238,-264 886.72,-264 886.72,-214 1054.238,-214 1054.238,-264"/>
<text text-anchor="start" x="894.8496" y="-248.8" font-family="Times,serif" font-size="14.00" fill="#000000">Deployment: Closed</text>
<text text-anchor="start" x="894.8496" y="-234.8" font-family="Times,serif" font-size="14.00" fill="#000000">DeploymentGroup: Closed</text>
<text text-anchor="start" x="894.8496" y="-220.8" font-family="Times,serif" font-size="14.00" fill="#000000">Order: Closed</text>
</g>
<!-- 6&#45;&gt;10 -->
<g id="edge10" class="edge">
<title>6&#45;&gt;10</title>
<path fill="none" stroke="#000000" d="M734.2058,-239C777.9221,-239 831.5726,-239 876.6947,-239"/>
<polygon fill="#000000" stroke="#000000" points="876.7782,-242.5001 886.7781,-239 876.7781,-235.5001 876.7782,-242.5001"/>
<text text-anchor="middle" x="810.5254" y="-241.8" font-family="Times,serif" font-size="14.00" fill="#000000">TxCloseDeployment</text>
</g>
<!-- 11 -->
<g id="node12" class="node">
<title>11</title>
<polygon fill="none" stroke="#000000" points="1054.238,-178 886.72,-178 886.72,-114 1054.238,-114 1054.238,-178"/>
<text text-anchor="start" x="894.8496" y="-162.8" font-family="Times,serif" font-size="14.00" fill="#000000">Deployment: Closed</text>
<text text-anchor="start" x="894.8496" y="-148.8" font-family="Times,serif" font-size="14.00" fill="#000000">DeploymentGroup: Closed</text>
<text text-anchor="start" x="894.8496" y="-134.8" font-family="Times,serif" font-size="14.00" fill="#000000">Order: Closed</text>
<text text-anchor="start" x="894.8496" y="-120.8" font-family="Times,serif" font-size="14.00" fill="#000000">Fulfillment: Closed</text>
</g>
<!-- 7&#45;&gt;11 -->
<g id="edge11" class="edge">
<title>7&#45;&gt;11</title>
<path fill="none" stroke="#000000" d="M734.2058,-146C777.9221,-146 831.5726,-146 876.6947,-146"/>
<polygon fill="#000000" stroke="#000000" points="876.7782,-149.5001 886.7781,-146 876.7781,-142.5001 876.7782,-149.5001"/>
<text text-anchor="middle" x="810.5254" y="-148.8" font-family="Times,serif" font-size="14.00" fill="#000000">TxCloseDeployment</text>
</g>
<!-- 12 -->
<g id="node13" class="node">
<title>12</title>
<polygon fill="none" stroke="#000000" points="1054.238,-78 886.72,-78 886.72,0 1054.238,0 1054.238,-78"/>
<text text-anchor="start" x="894.8496" y="-62.8" font-family="Times,serif" font-size="14.00" fill="#000000">Deployment: Closed</text>
<text text-anchor="start" x="894.8496" y="-48.8" font-family="Times,serif" font-size="14.00" fill="#000000">DeploymentGroup: Closed</text>
<text text-anchor="start" x="894.8496" y="-34.8" font-family="Times,serif" font-size="14.00" fill="#000000">Order: Closed</text>
<text text-anchor="start" x="894.8496" y="-20.8" font-family="Times,serif" font-size="14.00" fill="#000000">Fulfillment: Closed</text>
<text text-anchor="start" x="894.8496" y="-6.8" font-family="Times,serif" font-size="14.00" fill="#000000">Lease: Closed</text>
</g>
<!-- 8&#45;&gt;12 -->
<g id="edge12" class="edge">
<title>8&#45;&gt;12</title>
<path fill="none" stroke="#000000" d="M734.2058,-39C777.9221,-39 831.5726,-39 876.6947,-39"/>
<polygon fill="#000000" stroke="#000000" points="876.7782,-42.5001 886.7781,-39 876.7781,-35.5001 876.7782,-42.5001"/>
<text text-anchor="middle" x="810.5254" y="-41.8" font-family="Times,serif" font-size="14.00" fill="#000000">TxCloseDeployment</text>
</g>
</g>
</svg>
