<?xml version="1.0" encoding="UTF-8" standalone="no"?>
<!DOCTYPE svg PUBLIC "-//W3C//DTD SVG 1.1//EN"
 "http://www.w3.org/Graphics/SVG/1.1/DTD/svg11.dtd">
<!-- Generated by graphviz version 2.40.1 (20161225.0304)
 -->
<!-- Title: webapp Pages: 1 -->
<svg width="366pt" height="226pt"
 viewBox="0.00 0.00 366.18 226.00" xmlns="http://www.w3.org/2000/svg" xmlns:xlink="http://www.w3.org/1999/xlink">
<g id="graph0" class="graph" transform="scale(1 1) rotate(0) translate(4 222)">
<title>webapp</title>
<polygon fill="#ffffff" stroke="transparent" points="-4,4 -4,-222 362.1837,-222 362.1837,4 -4,4"/>
<g id="clust1" class="cluster">
<title>cluster&#45;east</title>
<polygon fill="none" stroke="#000000" points="86,-8 86,-154 254,-154 254,-8 86,-8"/>
<text text-anchor="middle" x="170" y="-14.8" font-family="Times,serif" font-size="14.00" fill="#000000">us&#45;east</text>
</g>
<g id="clust2" class="cluster">
<title>cluster&#45;west</title>
<polygon fill="none" stroke="#000000" points="8,-8 8,-154 78,-154 78,-8 8,-8"/>
<text text-anchor="middle" x="43" y="-14.8" font-family="Times,serif" font-size="14.00" fill="#000000">us&#45;west</text>
</g>
<g id="clust3" class="cluster">
<title>cluster&#45;europe</title>
<polygon fill="none" stroke="#000000" points="262,-8 262,-154 332,-154 332,-8 262,-8"/>
<text text-anchor="middle" x="297" y="-14.8" font-family="Times,serif" font-size="14.00" fill="#000000">europe</text>
</g>
<!-- rails&#45;east -->
<g id="node1" class="node">
<title>rails&#45;east</title>
<ellipse fill="none" stroke="#000000" cx="160" cy="-128" rx="27" ry="18"/>
<text text-anchor="middle" x="160" y="-123.8" font-family="Times,serif" font-size="14.00" fill="#000000">rails</text>
</g>
<!-- redis&#45;east -->
<g id="node2" class="node">
<title>redis&#45;east</title>
<ellipse fill="none" stroke="#000000" cx="121" cy="-56" rx="27.0958" ry="18"/>
<text text-anchor="middle" x="121" y="-51.8" font-family="Times,serif" font-size="14.00" fill="#000000">redis</text>
</g>
<!-- rails&#45;east&#45;&gt;redis&#45;east -->
<g id="edge2" class="edge">
<title>rails&#45;east&#45;&gt;redis&#45;east</title>
<path fill="none" stroke="#000000" d="M150.7575,-110.937C146.1624,-102.4537 140.505,-92.0092 135.3612,-82.513"/>
<polygon fill="#000000" stroke="#000000" points="138.2874,-80.5666 130.447,-73.4407 132.1324,-83.9006 138.2874,-80.5666"/>
</g>
<!-- pg&#45;master -->
<g id="node3" class="node">
<title>pg&#45;master</title>
<ellipse fill="none" stroke="#000000" cx="206" cy="-56" rx="39.6645" ry="18"/>
<text text-anchor="middle" x="206" y="-51.8" font-family="Times,serif" font-size="14.00" fill="#000000">postgres</text>
</g>
<!-- rails&#45;east&#45;&gt;pg&#45;master -->
<g id="edge1" class="edge">
<title>rails&#45;east&#45;&gt;pg&#45;master</title>
<path fill="none" stroke="#000000" d="M170.6689,-111.3008C176.1961,-102.6496 183.072,-91.8873 189.2852,-82.1623"/>
<polygon fill="#000000" stroke="#000000" points="192.3126,-83.9245 194.7471,-73.6132 186.4138,-80.1558 192.3126,-83.9245"/>
</g>
<!-- rails&#45;west -->
<g id="node4" class="node">
<title>rails&#45;west</title>
<ellipse fill="none" stroke="#000000" cx="43" cy="-128" rx="27" ry="18"/>
<text text-anchor="middle" x="43" y="-123.8" font-family="Times,serif" font-size="14.00" fill="#000000">rails</text>
</g>
<!-- rails&#45;west&#45;&gt;pg&#45;master -->
<g id="edge4" class="edge">
<title>rails&#45;west&#45;&gt;pg&#45;master</title>
<path fill="none" stroke="#000000" d="M65.2359,-117.6362C70.7066,-115.1143 76.5565,-112.4411 82,-110 110.6549,-97.1498 143.2143,-82.9874 167.777,-72.3913"/>
<polygon fill="#000000" stroke="#000000" points="169.3088,-75.5425 177.1081,-68.3716 166.5393,-69.1136 169.3088,-75.5425"/>
</g>
<!-- redis&#45;west -->
<g id="node5" class="node">
<title>redis&#45;west</title>
<ellipse fill="none" stroke="#000000" cx="43" cy="-56" rx="27.0958" ry="18"/>
<text text-anchor="middle" x="43" y="-51.8" font-family="Times,serif" font-size="14.00" fill="#000000">redis</text>
</g>
<!-- rails&#45;west&#45;&gt;redis&#45;west -->
<g id="edge3" class="edge">
<title>rails&#45;west&#45;&gt;redis&#45;west</title>
<path fill="none" stroke="#000000" d="M43,-109.8314C43,-102.131 43,-92.9743 43,-84.4166"/>
<polygon fill="#000000" stroke="#000000" points="46.5001,-84.4132 43,-74.4133 39.5001,-84.4133 46.5001,-84.4132"/>
</g>
<!-- rails&#45;europe -->
<g id="node6" class="node">
<title>rails&#45;europe</title>
<ellipse fill="none" stroke="#000000" cx="297" cy="-128" rx="27" ry="18"/>
<text text-anchor="middle" x="297" y="-123.8" font-family="Times,serif" font-size="14.00" fill="#000000">rails</text>
</g>
<!-- rails&#45;europe&#45;&gt;pg&#45;master -->
<g id="edge6" class="edge">
<title>rails&#45;europe&#45;&gt;pg&#45;master</title>
<path fill="none" stroke="#000000" d="M279.4543,-114.1177C266.5553,-103.9119 248.7625,-89.8341 233.9195,-78.0901"/>
<polygon fill="#000000" stroke="#000000" points="236.0406,-75.3053 226.0266,-71.8453 231.6972,-80.7949 236.0406,-75.3053"/>
</g>
<!-- redis&#45;europe -->
<g id="node7" class="node">
<title>redis&#45;europe</title>
<ellipse fill="none" stroke="#000000" cx="297" cy="-56" rx="27.0958" ry="18"/>
<text text-anchor="middle" x="297" y="-51.8" font-family="Times,serif" font-size="14.00" fill="#000000">redis</text>
</g>
<!-- rails&#45;europe&#45;&gt;redis&#45;europe -->
<g id="edge5" class="edge">
<title>rails&#45;europe&#45;&gt;redis&#45;europe</title>
<path fill="none" stroke="#000000" d="M297,-109.8314C297,-102.131 297,-92.9743 297,-84.4166"/>
<polygon fill="#000000" stroke="#000000" points="300.5001,-84.4132 297,-74.4133 293.5001,-84.4133 300.5001,-84.4132"/>
</g>
<!-- user&#45;ny -->
<g id="node8" class="node">
<title>user&#45;ny</title>
<polygon fill="none" stroke="#000000" points="204.7628,-192.5442 204.7628,-207.4558 178.5413,-218 141.4587,-218 115.2372,-207.4558 115.2372,-192.5442 141.4587,-182 178.5413,-182 204.7628,-192.5442"/>
<text text-anchor="middle" x="160" y="-195.8" font-family="Times,serif" font-size="14.00" fill="#000000">NY User</text>
</g>
<!-- user&#45;ny&#45;&gt;rails&#45;east -->
<g id="edge7" class="edge">
<title>user&#45;ny&#45;&gt;rails&#45;east</title>
<path fill="none" stroke="#000000" d="M160,-181.8314C160,-174.131 160,-164.9743 160,-156.4166"/>
<polygon fill="#000000" stroke="#000000" points="163.5001,-156.4132 160,-146.4133 156.5001,-156.4133 163.5001,-156.4132"/>
</g>
<!-- user&#45;sf -->
<g id="node9" class="node">
<title>user&#45;sf</title>
<polygon fill="none" stroke="#000000" points="85.1071,-192.5442 85.1071,-207.4558 60.4413,-218 25.5587,-218 .8929,-207.4558 .8929,-192.5442 25.5587,-182 60.4413,-182 85.1071,-192.5442"/>
<text text-anchor="middle" x="43" y="-195.8" font-family="Times,serif" font-size="14.00" fill="#000000">SF User</text>
</g>
<!-- user&#45;sf&#45;&gt;rails&#45;west -->
<g id="edge8" class="edge">
<title>user&#45;sf&#45;&gt;rails&#45;west</title>
<path fill="none" stroke="#000000" d="M43,-181.8314C43,-174.131 43,-164.9743 43,-156.4166"/>
<polygon fill="#000000" stroke="#000000" points="46.5001,-156.4132 43,-146.4133 39.5001,-156.4133 46.5001,-156.4132"/>
</g>
<!-- user&#45;gb -->
<g id="node10" class="node">
<title>user&#45;gb</title>
<polygon fill="none" stroke="#000000" points="358.368,-192.5442 358.368,-207.4558 322.4194,-218 271.5806,-218 235.632,-207.4558 235.632,-192.5442 271.5806,-182 322.4194,-182 358.368,-192.5442"/>
<text text-anchor="middle" x="297" y="-195.8" font-family="Times,serif" font-size="14.00" fill="#000000">London User</text>
</g>
<!-- user&#45;gb&#45;&gt;rails&#45;europe -->
<g id="edge9" class="edge">
<title>user&#45;gb&#45;&gt;rails&#45;europe</title>
<path fill="none" stroke="#000000" d="M297,-181.8314C297,-174.131 297,-164.9743 297,-156.4166"/>
<polygon fill="#000000" stroke="#000000" points="300.5001,-156.4132 297,-146.4133 293.5001,-156.4133 300.5001,-156.4132"/>
</g>
</g>
</svg>
